<svg data-name="Layer 1" viewBox="0 0 128 128" xmlns="http://www.w3.org/2000/svg"><path d="M106.09 20.5a1.41 1.41 0 0 1 1.41 1.41v84.19a1.41 1.41 0 0 1-1.41 1.41H21.91a1.41 1.41 0 0 1-1.41-1.41V21.91a1.41 1.41 0 0 1 1.41-1.41h84.19m0-6.5H21.91A7.91 7.91 0 0 0 14 21.91v84.19a7.91 7.91 0 0 0 7.91 7.9h84.19a7.91 7.91 0 0 0 7.91-7.91V21.91a7.91 7.91 0 0 0-7.92-7.91Z" fill="#49f2ca" class="fill-062b31"></path><path d="M37.27 50.4H49v41.73H37.27zM77.23 50.4C67.18 50.4 67 56.21 67 56.61V50.4H55v41.73h12V68.31c0-1.86.55-5.86 6.23-5.86s5.63 5.73 5.63 5.73v24h11.87v-26c0-12.33-6.73-15.78-13.5-15.78Z" fill="#49f2ca" class="fill-062b31"></path><circle cx="43.13" cy="41.73" r="5.86" fill="#49f2ca" class="fill-062b31"></circle></svg>